<svg width="1440" height="860" viewBox="0 0 1440 860" fill="none" xmlns="http://www.w3.org/2000/svg">
<path fill-rule="evenodd" clip-rule="evenodd" d="M122.4 38.0138V-0.477539H121.4V38.0138H0V39.0138H121.4L121.4 229.657H0V230.657H121.4L121.4 421.299H0V422.299H121.4L121.4 612.942H0V613.942H121.4L121.4 804.585H0V805.585H121.4V859.522H122.4V805.585H274.4V859.522H275.4V805.585H427.4V859.522H428.4V805.585H580.4V859.522H581.4V805.585H733.4V859.522H734.4V805.585H886.4V859.522H887.4V805.585H1039.4V859.522H1040.4V805.585H1192.4V859.522H1193.4V805.585H1345.4V859.522H1346.4V805.585H1440V804.585H1346.4V613.942H1440V612.942H1346.4V422.299H1440V421.299H1346.4V230.657H1440V229.657H1346.4V39.0138H1440V38.0138H1346.4V-0.477539H1345.4V38.0138H1193.4V-0.477539H1192.4V38.0138H1040.4V-0.477539H1039.4V38.0138H887.4V-0.477539H886.4V38.0138H734.4V-0.477539H733.4V38.0138H581.4V-0.477539H580.4V38.0138H428.4V-0.477539H427.4V38.0138H275.4V-0.477539H274.4V38.0138H122.4ZM1345.4 39.0138H1193.4V229.657H1345.4V39.0138ZM1345.4 230.657H1193.4V421.299H1345.4V230.657ZM1345.4 422.299H1193.4V612.942H1345.4V422.299ZM1345.4 613.942H1193.4V804.585H1345.4V613.942ZM1192.4 613.942V804.585H1040.4V613.942H1192.4ZM1192.4 422.299V612.942H1040.4V422.299H1192.4ZM1192.4 230.657V421.299H1040.4V230.657H1192.4ZM1192.4 39.0138V229.657H1040.4V39.0138H1192.4ZM1039.4 39.0138H887.4V229.657H1039.4V39.0138ZM1039.4 230.657H887.4V421.299H1039.4V230.657ZM1039.4 422.299H887.4L887.4 612.942H1039.4V422.299ZM1039.4 613.942H887.4V804.585H1039.4V613.942ZM886.4 613.942V804.585H734.4V613.942H886.4ZM886.4 422.299L886.4 612.942H734.4L734.4 422.299H886.4ZM886.4 230.657V421.299H734.4V230.657H886.4ZM886.4 39.0138V229.657H734.4V39.0138H886.4ZM733.4 39.0138H581.4V229.657H733.4V39.0138ZM733.4 230.657H581.4V421.299H733.4V230.657ZM733.4 422.299H581.4L581.4 612.942H733.4L733.4 422.299ZM733.4 613.942H581.4V804.585H733.4V613.942ZM580.4 613.942V804.585H428.4V613.942H580.4ZM580.4 422.299L580.4 612.942H428.4L428.4 422.299H580.4ZM580.4 230.657V421.299H428.4V230.657H580.4ZM580.4 39.0138V229.657H428.4V39.0138H580.4ZM427.4 39.0138H275.4V229.657H427.4V39.0138ZM427.4 230.657H275.4V421.299H427.4V230.657ZM427.4 422.299H275.4L275.4 612.942H427.4L427.4 422.299ZM427.4 613.942H275.4V804.585H427.4V613.942ZM274.4 613.942V804.585H122.4L122.4 613.942H274.4ZM274.4 422.299L274.4 612.942H122.4L122.4 422.299H274.4ZM274.4 230.657V421.299H122.4L122.4 230.657H274.4ZM274.4 39.0138V229.657H122.4L122.4 39.0138H274.4Z" fill="url(#paint0_radial_6004_101)"/>
<defs>
<radialGradient id="paint0_radial_6004_101" cx="0" cy="0" r="1" gradientUnits="userSpaceOnUse" gradientTransform="translate(699.3 140.359) rotate(90) scale(358.833 215.55)">
<stop stop-color="#306EE8" stop-opacity="0.41"/>
<stop offset="1" stop-color="#306EE8" stop-opacity="0.08"/>
</radialGradient>
</defs>
</svg>
