<svg width="1170" height="472" viewBox="0 0 1170 472" fill="none" xmlns="http://www.w3.org/2000/svg">
<path fill-rule="evenodd" clip-rule="evenodd" d="M99.4497 20.6744V0H98.4497V20.6744H-0.000244141V21.6744H98.4497L98.4497 125.634H-0.000244141V126.634H98.4497V230.889H-0.000244141V231.889H98.4497L98.4497 336.143H-0.000244141V337.143H98.4497L98.4497 441.397H-0.000244141V442.397H98.4497V472H99.4497V442.397H222.762V472H223.762V442.397H347.075V472H348.075V442.397H471.387V472H472.387V442.397H595.7V472H596.7V442.397H720.012V472H721.012V442.397H844.325V472H845.325V442.397H968.638V472H969.638V442.397H1092.95V472H1093.95V442.397H1170V441.397H1093.95V337.143H1170V336.143H1093.95V231.889H1170V230.889H1093.95V126.634H1170V125.634H1093.95V21.6744H1170V20.6744H1093.95V0H1092.95V20.6744H969.638V0H968.638V20.6744H845.325V0H844.325V20.6744H721.012V0H720.012V20.6744H596.7V0H595.7V20.6744H472.387V0H471.387V20.6744H348.075V0H347.075V20.6744H223.762V0H222.762V20.6744H99.4497ZM1092.95 21.6744H969.638V125.634H1092.95V21.6744ZM1092.95 126.634H969.638V230.889H1092.95V126.634ZM1092.95 231.889H969.638V336.143H1092.95V231.889ZM1092.95 337.143H969.638V441.397H1092.95V337.143ZM968.638 337.143V441.397H845.325V337.143H968.638ZM968.638 231.889V336.143H845.325V231.889H968.638ZM968.638 126.634V230.889H845.325V126.634H968.638ZM968.638 21.6744V125.634H845.325V21.6744H968.638ZM844.325 21.6744H721.012V125.634H844.325V21.6744ZM844.325 126.634H721.012V230.889H844.325V126.634ZM844.325 231.889H721.012V336.143H844.325V231.889ZM844.325 337.143H721.012V441.397H844.325V337.143ZM720.012 337.143V441.397H596.7V337.143H720.012ZM720.012 231.889V336.143H596.7V231.889H720.012ZM720.012 126.634V230.889H596.7V126.634H720.012ZM720.012 21.6744V125.634H596.7V21.6744H720.012ZM595.7 21.6744H472.387V125.634H595.7V21.6744ZM595.7 126.634H472.387V230.889H595.7V126.634ZM595.7 231.889H472.387L472.387 336.143H595.7V231.889ZM595.7 337.143H472.387V441.397H595.7V337.143ZM471.387 337.143V441.397H348.075V337.143H471.387ZM471.387 231.889L471.387 336.143H348.075L348.075 231.889H471.387ZM471.387 126.634V230.889H348.075V126.634H471.387ZM471.387 21.6744V125.634H348.075V21.6744H471.387ZM347.075 21.6744H223.762L223.762 125.634H347.075V21.6744ZM347.075 126.634H223.762V230.889H347.075V126.634ZM347.075 231.889H223.762V336.143H347.075L347.075 231.889ZM347.075 337.143H223.762L223.762 441.397H347.075V337.143ZM222.762 337.143L222.762 441.397H99.4497L99.4497 337.143H222.762ZM222.762 231.889V336.143H99.4497L99.4497 231.889H222.762ZM222.762 126.634V230.889H99.4497V126.634H222.762ZM222.762 21.6744L222.762 125.634H99.4497L99.4497 21.6744H222.762Z" fill="url(#paint0_radial_6004_86)"/>
<defs>
<radialGradient id="paint0_radial_6004_86" cx="0" cy="0" r="1" gradientUnits="userSpaceOnUse" gradientTransform="translate(568.181 77.2962) rotate(90) scale(196.941 175.134)">
<stop stop-color="white" stop-opacity="0.22"/>
<stop offset="1" stop-color="white" stop-opacity="0.05"/>
</radialGradient>
</defs>
</svg>
